<svg xmlns="http://www.w3.org/2000/svg"
 xmlns:xlink="http://www.w3.org/1999/xlink"
 width="20px" height="23px"  viewBox="0 0 20 23">
<path fill-rule="evenodd"  fill="#ffffff"
 d="M16.338501,12.570423 C16.31604,10.051212 18.381592,8.82626 18.476074,8.769352 C17.306152,7.047806 15.493042,6.8123627 14.855835,6.7940063 C13.332886,6.6319923 11.855713,7.713295 11.079956,7.713295 C10.288574,7.713295 9.093872,6.8091507 7.8063965,6.8357697 C6.149536,6.861931 4.5994873,7.8298683 3.7493896,9.333408 C1.9949951,12.398773 3.3034668,16.904343 4.984253,19.38224 C5.8250732,20.596184 6.807617,21.95102 8.093628,21.90329 C9.351685,21.850967 9.821777,21.093689 11.339966,21.093689 C12.84436,21.093689 13.285645,21.90329 14.597168,21.872993 C15.94751,21.850967 16.797607,20.654007 17.608887,19.42952 C18.580688,18.03888 18.970947,16.6689 18.986328,16.597755 C18.95459,16.587204 16.364014,15.589432 16.338501,12.570423 ZM13.86084,5.162876 C14.53772,4.3092194 15.00061,3.1471405 14.87207,1.968544 C13.892578,2.0116844 12.667847,2.651928 11.962524,3.4867706 C11.338501,4.2233925 10.781006,5.429989 10.924927,6.564987 C12.025269,6.6475983 13.154785,6.0041428 13.86084,5.162876 Z"/>
</svg>