<svg xmlns="http://www.w3.org/2000/svg"
 xmlns:xlink="http://www.w3.org/1999/xlink"
 width="16px" height="15px"  viewBox="0 0 16 15">
<path fill-rule="evenodd"  fill="#ffffff"
 d="M9.521484,2.3574219 C9.521484,2.3574219 13.607483,6.4438477 13.607483,6.4438477 C14.171692,7.0078125 14.171692,7.9223633 13.607483,8.486328 C13.043396,9.050293 12.128723,9.050293 11.564514,8.486328 C11.564514,8.486328 7.4785156,4.4003906 7.4785156,4.4003906 C6.9143066,3.8364258 6.9143066,2.921875 7.4785156,2.3574219 C8.042603,1.793457 8.957397,1.793457 9.521484,2.3574219 ZM13.607483,6.4438477 C14.171692,7.0078125 14.171692,7.9223633 13.607483,8.486328 C13.607483,8.486328 9.521484,12.572754 9.521484,12.572754 C8.957397,13.136719 8.042603,13.136719 7.4785156,12.572754 C6.9143066,12.008301 6.9143066,11.093262 7.4785156,10.529297 C7.4785156,10.529297 11.564514,6.4438477 11.564514,6.4438477 C12.128723,5.8793945 13.043396,5.8793945 13.607483,6.4438477 ZM2.499939,6.0 C2.499939,6.0 12.5,6.0 12.5,6.0 C13.32843,6.0 14.0,6.6713867 14.0,7.4995117 C14.0,8.328125 13.32843,9.0 12.5,9.0 C12.5,9.0 2.499939,9.0 2.499939,9.0 C1.6715698,9.0 1.0,8.328125 1.0,7.4995117 C1.0,6.6713867 1.6715698,6.0 2.499939,6.0 Z"/>
</svg>