<svg xmlns="http://www.w3.org/2000/svg"
 xmlns:xlink="http://www.w3.org/1999/xlink"
 width="27px" height="30px"  viewBox="0 0 27 30">
<path fill-rule="evenodd"  fill="#ffffff"
 d="M18.82898,7.2597656 C22.095703,7.2597656 24.184448,10.397949 24.184448,10.397949 C24.184448,10.397949 20.997925,12.114746 20.997925,15.843262 C20.997925,20.268555 25.001038,21.555664 25.001038,21.555664 C25.001038,21.555664 21.84143,28.998535 18.293396,28.998535 C16.298462,28.998535 16.16449,27.858887 13.51355,27.858887 C11.210754,27.858887 10.434265,28.998535 8.680237,28.998535 C5.333252,28.998535 1.008606,21.74414 1.008606,15.843262 C1.008606,9.714355 5.3866577,7.2597656 8.131409,7.2597656 C10.541443,7.2597656 11.545593,8.668457 13.486877,8.668457 C15.1203,8.668457 16.405579,7.2597656 18.82898,7.2597656 ZM18.266602,1.0107422 C18.748596,4.0151367 16.003906,7.729492 12.723633,7.6083984 C12.241638,3.7861328 15.776367,1.2114258 18.266602,1.0107422 Z"/>
</svg>