<svg xmlns="http://www.w3.org/2000/svg"
 xmlns:xlink="http://www.w3.org/1999/xlink"
 width="19px" height="16px"  viewBox="0 0 19 16">
<path fill-rule="evenodd"  fill="#26272d"
 d="M17.999786,2.6582031 C17.374832,2.9389648 16.70221,3.128418 15.9969635,3.2148438 C16.716888,2.7773438 17.269745,2.0844727 17.529907,1.2602539 C16.85556,1.6650391 16.110168,1.9589844 15.315369,2.1176758 C14.679474,1.4301758 13.773468,1.0009766 12.769836,1.0009766 C10.843597,1.0009766 9.28244,2.5830078 9.28244,4.534668 C9.28244,4.8125 9.313522,5.0820312 9.372833,5.3408203 C6.475006,5.1933594 3.9055176,3.7861328 2.1855774,1.6479492 C1.8854523,2.1699219 1.7138824,2.7773438 1.7138824,3.425293 C1.7138824,4.650879 2.329773,5.7333984 3.26503,6.366699 C2.6929321,6.347168 2.1555328,6.1884766 1.6855621,5.9243164 C1.6855621,5.9399414 1.6855621,5.9541016 1.6855621,5.96875 C1.6855621,7.6811523 2.8871918,9.108887 4.4830627,9.434082 C4.1902924,9.514648 3.8828278,9.558594 3.5643005,9.558594 C3.339798,9.558594 3.1208344,9.536133 2.9082642,9.494141 C3.351715,10.8984375 4.6401367,11.919922 6.165634,11.948242 C4.972107,12.895996 3.4684448,13.460449 1.8343353,13.460449 C1.5533752,13.460449 1.2749939,13.444824 1.0021515,13.412598 C2.545105,14.414551 4.3781586,14.999512 6.348068,14.999512 C12.762482,14.999512 16.269806,9.614746 16.269806,4.9453125 C16.269806,4.791504 16.26619,4.6396484 16.259796,4.4882812 C16.9413,3.989746 17.53267,3.3671875 17.999786,2.6591797 C17.999786,2.6591797 17.999786,2.6582031 17.999786,2.6582031 Z"/>
</svg>