<svg xmlns="http://www.w3.org/2000/svg"
 xmlns:xlink="http://www.w3.org/1999/xlink"
 width="13px" height="20px"  viewBox="0 0 13 20">
<path fill-rule="evenodd"  fill="#26272d"
 d="M7.985382,18.9917 C7.985382,18.9917 3.9872131,18.9917 3.9872131,18.9917 C3.9872131,18.9917 3.9872131,10.496094 3.9872131,10.496094 C3.9872131,10.496094 1.9889832,10.496094 1.9889832,10.496094 C1.9889832,10.496094 1.9889832,7.222168 1.9889832,7.222168 C1.9889832,7.222168 3.9872131,7.222168 3.9872131,7.222168 C3.9872131,7.222168 3.9872131,5.257324 3.9872131,5.257324 C3.9872131,2.5893555 5.1154175,1.0004883 8.31955,1.0004883 C8.31955,1.0004883 10.987854,1.0004883 10.987854,1.0004883 C10.987854,1.0004883 10.987854,4.272949 10.987854,4.272949 C10.987854,4.272949 9.320923,4.272949 9.320923,4.272949 C8.073029,4.272949 7.9900513,4.730957 7.9900513,5.584961 C7.9900513,5.584961 7.985382,7.222168 7.985382,7.222168 C7.985382,7.222168 11.007111,7.222168 11.007111,7.222168 C11.007111,7.222168 10.65329,10.496094 10.65329,10.496094 C10.65329,10.496094 7.985382,10.496094 7.985382,10.496094 C7.985382,10.496094 7.985382,18.9917 7.985382,18.9917 Z"/>
</svg>