<svg xmlns="http://www.w3.org/2000/svg"
 xmlns:xlink="http://www.w3.org/1999/xlink"
 width="112px" height="39px"  viewBox="0 0 112 39">
<path fill-rule="evenodd"  fill="#26272d"
 d="M48.458008,25.957031 C48.152344,26.155273 48.008057,27.665527 47.14319,27.659668 C45.60901,27.648438 46.914673,24.439453 47.298096,23.156738 C47.52234,22.405762 48.26538,20.038574 49.61267,15.990234 C51.94043,15.625 54.201782,15.035645 54.814087,14.440918 C56.348145,12.95166 57.223877,10.611328 57.223877,10.611328 C57.223877,10.611328 55.12854,11.2890625 50.8313,12.102539 C50.8313,12.102539 53.279175,4.0410156 53.279175,4.0410156 C53.279175,4.0410156 53.08008,3.6914062 52.621826,3.9169922 C51.78882,4.326172 50.537354,4.9975586 50.097534,5.5302734 C49.56189,6.180176 48.5094,9.226074 47.419434,12.694824 C47.32715,12.709473 47.236816,12.724121 47.14319,12.73877 C45.73694,12.958984 44.424683,13.150879 43.169434,13.30957 C43.169434,13.30957 43.524048,12.617676 43.524048,12.617676 C44.006226,12.068848 45.385864,9.591797 46.144775,8.258301 C47.605835,5.692383 47.180786,3.9106445 46.70569,3.2524414 C46.11743,2.4375 44.510742,2.2885742 43.51819,2.9038086 C42.89392,3.2910156 42.479126,4.024414 42.06836,5.3339844 C41.27771,7.8554688 39.798462,12.617676 39.798462,12.617676 C39.798462,12.617676 39.611206,13.131348 39.414673,13.694336 C36.020996,13.943848 32.81421,13.876953 28.95398,13.377441 C24.943848,12.858398 21.722168,12.100586 18.654053,13.590332 C17.963501,13.925293 17.399414,14.289551 16.94983,14.630371 C16.701294,12.209961 14.151001,11.208008 12.738037,11.036621 C10.520508,10.767578 8.355103,11.312012 6.081543,13.555176 C5.2176514,14.408203 3.406372,16.417969 2.5297852,19.576172 C1.519165,23.216309 2.026001,25.843262 3.4420166,27.52295 C5.258545,29.67627 8.974487,29.889648 11.268188,28.376465 C12.300659,27.695312 13.677612,26.111816 14.378174,23.101074 C14.653442,23.144043 15.052124,23.13623 15.375977,23.106445 C16.827759,22.973633 17.510986,21.828125 17.60559,21.730957 C17.370972,22.615723 17.065796,23.55664 16.47461,25.306152 C16.108887,26.388184 15.900635,27.512207 16.554443,28.34375 C17.175293,29.1333 18.019287,29.128906 18.745728,29.15039 C20.462524,29.199219 22.577759,27.049805 22.577759,27.049805 C22.577759,27.049805 22.782837,29.024414 25.672363,29.15039 C27.946167,29.248535 29.087769,27.496582 29.087769,27.496582 C29.087769,27.496582 29.135986,29.015625 31.114746,29.15039 C33.03125,29.279785 34.59558,27.170898 35.648804,25.14209 C35.648804,25.14209 33.67505,31.077637 33.67505,31.077637 C33.67505,31.077637 32.764038,34.018066 33.619873,35.6333 C34.304688,36.92627 36.126343,37.125977 36.9906,36.94287 C37.897217,36.750977 39.262817,36.325195 40.67505,33.739258 C42.354004,30.66504 42.67627,23.365234 42.70227,21.944336 C42.7511,19.260742 42.608032,18.808105 42.333496,16.35791 C43.30017,16.357422 44.370728,16.355957 45.581665,16.355957 C45.808228,16.355957 46.050537,16.34961 46.30298,16.338379 C45.14502,20.194336 44.13977,23.74707 43.914185,24.41455 C42.380127,28.955078 45.819458,29.33496 46.324707,29.338867 C49.77295,29.361328 50.649414,27.020508 50.649414,27.020508 C50.649414,27.020508 51.051025,26.18164 50.97412,25.957031 C50.755005,25.318848 49.11548,25.531738 48.458008,25.957031 ZM45.200928,5.241699 C45.439575,4.4868164 46.01184,3.8388672 46.267456,4.5288086 C46.52295,5.220215 45.975098,7.612793 44.51416,9.848145 C43.990112,10.650391 43.039917,12.290527 42.839233,12.593262 C43.33069,11.149414 44.652466,6.975586 45.200928,5.241699 ZM13.714111,21.927734 C13.494873,21.927734 12.453857,21.625977 12.234863,20.349121 C12.054565,19.300293 13.047974,19.277344 13.385376,19.62207 C14.202026,20.456543 13.714111,21.927734 13.714111,21.927734 ZM29.169922,24.42871 C28.804688,25.662598 28.10437,26.569336 27.590088,26.896484 C26.771118,27.416504 25.380493,27.340332 25.270874,25.811035 C25.220459,25.105469 25.461914,23.843262 26.30188,21.967773 C27.11499,20.153809 27.954102,19.21045 28.85022,19.32959 C30.092041,19.49414 29.864014,20.842773 29.864014,20.842773 C29.94983,21.499512 29.623657,22.895996 29.169922,24.42871 ZM32.237915,27.060547 C31.249878,27.07129 31.839355,25.15918 32.02527,24.605957 C32.33716,23.6792 34.100708,18.14502 34.100708,18.14502 C34.100708,18.14502 32.091187,17.921387 31.470947,18.359863 C31.183105,18.562988 30.59436,19.460938 30.59436,19.460938 C30.59436,19.460938 30.603394,18.228027 29.069336,18.14502 C27.535278,18.062012 26.287842,18.6875 25.088013,19.822754 C22.202759,22.55371 22.26709,25.955078 22.26709,25.955078 C22.26709,25.955078 20.517334,27.850586 19.51294,26.830566 C19.08081,26.39209 19.917114,24.213379 20.28003,23.096191 C20.84607,21.35254 21.813965,18.14502 21.813965,18.14502 C21.813965,18.14502 19.58435,18.018066 18.965088,18.359863 C17.95691,18.915527 17.288208,20.894043 16.343018,21.684082 C15.643677,22.268066 14.666748,22.14209 14.525024,22.03125 C14.525024,22.03125 14.937744,20.811035 14.426392,19.639648 C13.840942,18.299316 12.421875,18.490723 11.906128,18.824707 C11.248657,19.25 11.104126,20.141602 11.376465,21.041016 C11.650391,21.944824 12.679932,22.820312 13.385376,22.973633 C13.203613,23.833984 12.738037,24.867188 11.86145,25.931152 C10.380371,27.728027 8.296875,27.59375 7.067627,25.83252 C6.1135254,24.46582 6.3554688,20.89209 7.8166504,17.865234 C9.277588,14.838379 10.69165,13.851074 12.27832,13.495605 C14.158569,13.074219 15.885132,14.374023 15.441772,16.53418 C15.441772,16.53418 15.367798,16.84375 15.367798,16.84375 C15.367798,16.84375 15.322754,17.04004 15.410156,17.128906 C15.668945,17.390137 16.412354,17.627441 17.558472,16.355957 C19.297607,14.425781 23.795776,14.918457 29.830566,15.717773 C33.323242,16.180176 35.207764,16.310547 38.574097,16.345703 C38.574097,16.345703 36.585205,22.32666 36.585205,22.32666 C35.59778,24.499512 34.055786,27.041504 32.237915,27.060547 ZM40.108154,30.803223 C39.025513,33.449707 38.129883,34.069824 37.460938,34.331543 C36.8407,34.574707 36.549683,34.387695 36.395752,33.966797 C36.194824,33.416992 36.56604,32.160156 36.56604,32.160156 C36.56604,32.160156 41.446167,17.083008 41.446167,17.083008 C42.186646,22.124023 41.168213,28.211914 40.108154,30.803223 ZM107.59021,14.467285 C109.12439,12.978027 110.00012,10.521484 110.00012,10.521484 C110.00012,10.521484 108.1499,11.520996 101.86194,12.550781 C101.86194,12.550781 102.20813,12.052734 102.20813,12.052734 C102.69031,11.503906 104.09424,9.0390625 104.82886,7.6933594 C106.428955,4.7626953 105.86499,3.3452148 105.38977,2.6870117 C104.801636,1.8720703 103.19495,1.7231445 102.20239,2.338379 C101.578125,2.7250977 101.16321,3.4594727 100.75244,4.769043 C99.961914,7.2905273 98.482666,12.052734 98.482666,12.052734 C98.482666,12.052734 98.303345,12.543945 98.11157,13.092773 C92.72473,13.768066 88.369385,13.79248 82.82593,13.074707 C78.81592,12.556152 75.81323,12.010742 72.74512,13.500488 C72.16028,13.78418 71.66785,14.089355 71.256714,14.3828125 C71.182495,12.991699 70.304565,11.071289 66.53516,10.896973 C64.607666,10.808105 61.97888,11.707031 59.906006,13.664551 C59.023193,14.498535 57.230835,16.526855 56.354126,19.685059 C55.343628,23.325684 55.850464,25.952637 57.2666,27.631836 C59.083008,29.785156 62.052002,29.418457 63.32202,28.60791 C64.37097,27.937012 64.85596,27.118164 65.075195,26.692383 C65.513306,27.543945 65.98804,28.095215 66.59717,28.583496 C67.6582,29.434082 70.28589,29.73584 72.260376,26.668457 C72.72827,25.941406 73.101074,24.719238 73.33789,23.770508 C73.37732,23.776855 73.79346,23.937012 74.232666,23.930176 C74.67163,23.92334 75.13428,23.748047 75.37195,23.565918 C74.89404,25.421387 75.04297,27.069824 76.03955,28.157715 C77.68799,29.958496 83.115234,30.064453 84.53113,23.349121 C85.39526,22.990723 85.99988,22.595215 86.623535,21.753418 C86.8103,21.851074 87.746704,22.449219 89.13318,21.774902 C89.32324,21.682129 88.534424,23.625 87.943115,25.373535 C87.57739,26.455566 87.36914,27.580078 88.02295,28.411133 C88.64392,29.201172 89.48816,29.209473 90.214355,29.217773 C92.558716,29.243652 94.73169,25.22998 94.73169,25.22998 C94.73169,25.22998 93.53186,28.583496 93.53186,28.583496 C93.53186,28.583496 93.36865,29.205078 94.02612,29.205078 C95.12195,29.205078 95.42114,29.243652 96.023926,29.243652 C96.46216,29.243652 96.59985,28.583496 96.59985,28.583496 C96.59985,28.583496 97.68115,25.60498 97.68115,25.60498 C97.68115,25.60498 99.43445,25.589355 99.43445,27.094238 C99.43445,28.371094 100.083984,29.185059 101.53723,29.22168 C102.48425,29.246094 104.0365,29.115234 104.78516,28.175781 C104.97485,27.9375 105.39502,27.113281 105.46094,26.926758 C105.611206,26.500977 106.0199,25.901367 105.159546,25.737305 C104.84448,25.677734 103.81726,25.817383 103.81726,25.817383 C103.81726,25.817383 103.15979,25.817383 102.872314,26.668457 C102.72778,27.095703 102.50244,27.732422 102.06421,27.732422 C101.18579,27.732422 102.06421,26.455566 100.53003,25.391602 C99.982056,25.011719 98.427246,24.987793 98.33862,24.966309 C98.84851,24.905762 99.61755,25.047363 101.099,24.328125 C102.41394,23.689453 104.69397,22.838379 104.913086,19.434082 C105.050415,17.299805 101.099,17.09375 99.56494,19.434082 C99.56494,19.434082 100.57825,16.210938 100.57825,16.210938 C102.92554,16.0083 106.74927,15.283691 107.59021,14.467285 ZM103.88513,4.6762695 C104.12378,3.9213867 104.696045,3.2734375 104.95166,3.9638672 C105.20715,4.654785 104.65918,7.0478516 103.198364,9.283203 C102.674194,10.085449 101.72412,11.725586 101.523315,12.027832 C102.01489,10.584473 103.33667,6.4101562 103.88513,4.6762695 ZM65.95166,22.649902 C65.95166,22.649902 65.33984,20.390137 65.95166,19.245605 C66.49902,18.22168 67.2489,18.706543 67.26648,19.458496 C67.3147,21.49707 65.95166,22.649902 65.95166,22.649902 ZM83.28259,21.553223 C83.0636,21.559082 82.82471,21.562012 82.56006,21.562012 C81.46448,21.562012 80.24756,21.32129 80.149536,21.987305 C79.9303,23.47705 82.85315,23.629395 82.888916,23.628906 C82.876465,23.697266 82.84302,23.833984 82.83301,23.902344 C81.68359,27.945312 78.61548,27.945312 78.177246,26.242676 C77.93347,25.296387 78.13464,23.854004 78.83472,22.200195 C80.095825,19.22168 81.90259,19.00879 82.56006,19.646973 C83.174194,20.243164 83.32178,20.88623 83.28259,21.553223 ZM86.64429,20.587402 C86.67432,20.564941 85.65564,20.024902 86.15784,19.027832 C86.37317,18.600586 87.06445,18.597656 87.25806,19.13379 C87.40845,19.550781 87.0918,20.30371 86.64429,20.587402 ZM95.94397,20.660156 C95.94397,20.660156 94.38037,24.652832 92.822754,26.161621 C92.822754,26.161621 91.27124,27.844238 90.75708,26.88086 C90.47412,26.351074 91.49011,23.743164 91.85278,22.625488 C92.41907,20.882324 93.28247,18.21289 93.28247,18.21289 C93.28247,18.21289 90.887695,17.944824 90.230225,18.795898 C90.08325,18.986816 89.34973,20.118164 88.69629,20.710938 C88.029785,21.314941 87.49121,21.172852 87.30725,20.993164 C87.30725,20.993164 88.46521,19.687988 87.783325,18.593262 C87.27515,17.777832 86.33142,17.884277 85.85657,18.123535 C85.34155,18.3833 85.01184,18.947754 85.162476,19.77246 C85.21277,20.047363 85.45007,20.756348 85.874756,21.128418 C85.745605,21.27002 85.41821,21.394531 84.7124,21.442871 C84.6311,19.708008 83.93921,17.969238 81.17493,17.949219 C79.41919,17.937012 77.11401,19.34961 75.970825,21.857422 C75.85779,21.971191 75.50635,22.511719 74.45178,22.413086 C74.119385,22.381836 73.849,22.325684 73.65393,22.02832 C73.83203,19.981934 73.64807,18.805664 72.73901,18.486328 C72.38098,18.360352 71.47595,18.438965 71.14624,19.249023 C70.74414,20.237793 71.22595,21.47705 71.99878,22.505371 C71.944336,23.407715 71.82202,24.391113 71.38367,25.17871 C69.23889,29.033203 65.95166,25.628418 66.17078,24.13916 C70.55371,17.96875 66.599,16.873047 65.27283,17.58545 C62.585693,19.027832 64.22351,24.01123 64.38379,24.482422 C64.33447,25.5083 61.834595,27.14209 60.473145,25.416016 C59.39868,24.05371 60.061035,19.907715 61.522095,16.88086 C62.983032,13.854004 65.21997,12.818848 67.192505,12.862305 C68.75012,12.896484 69.44397,13.688477 69.58301,14.833496 C69.64624,15.354004 69.538086,16.218262 69.397705,16.84668 C69.3374,17.11621 69.89624,18.18164 71.86865,16.266602 C73.85327,14.340332 76.46265,14.180176 82.82593,15.415527 C87.44934,16.312988 93.00928,16.302246 97.26648,16.276855 C96.66638,18.25 95.94397,20.660156 95.94397,20.660156 ZM101.975586,21.562012 C100.572266,24.286621 98.049805,23.902344 98.049805,23.902344 C98.049805,23.902344 98.90747,21.349121 98.90747,21.349121 C100.003174,19.00879 103.72876,18.157715 101.975586,21.562012 Z"/>
</svg>