<svg xmlns="http://www.w3.org/2000/svg"
 xmlns:xlink="http://www.w3.org/1999/xlink"
 width="26px" height="25px"  viewBox="0 0 26 25">
<path fill-rule="evenodd"  fill="#f2bc3b"
 d="M15.870789,7.8710938 C16.07544,8.501465 16.662659,8.927734 17.325073,8.927734 C17.325073,8.927734 23.312622,8.927734 23.312622,8.927734 C24.354248,8.927734 24.78717,10.260254 23.944641,10.87207 C23.944641,10.87207 19.100403,14.391602 19.100403,14.391602 C18.564575,14.78125 18.340271,15.47168 18.544983,16.101562 C18.544983,16.101562 20.395447,21.795898 20.395447,21.795898 C20.717102,22.786133 19.583557,23.611816 18.740906,22.998047 C18.740906,22.998047 13.8967285,19.478516 13.8967285,19.478516 C13.36084,19.088867 12.635193,19.088867 12.099243,19.478516 C12.099243,19.478516 7.255249,22.998047 7.255249,22.998047 C6.4125366,23.611816 5.2788086,22.786133 5.600708,21.795898 C5.600708,21.795898 7.450989,16.101562 7.450989,16.101562 C7.6556396,15.47168 7.4313965,14.78125 6.895508,14.391602 C6.895508,14.391602 2.0515137,10.87207 2.0515137,10.87207 C1.2088623,10.260254 1.6419067,8.927734 2.6832886,8.927734 C2.6832886,8.927734 8.6710205,8.927734 8.6710205,8.927734 C9.333496,8.927734 9.920471,8.501465 10.125122,7.8710938 C10.125122,7.8710938 11.975525,2.1767578 11.975525,2.1767578 C12.297302,1.1855469 13.698608,1.1855469 14.020508,2.1767578 C14.020508,2.1767578 15.870789,7.8710938 15.870789,7.8710938 Z"/>
</svg>