<svg xmlns="http://www.w3.org/2000/svg"
 xmlns:xlink="http://www.w3.org/1999/xlink"
 width="27px" height="17px"  viewBox="0 0 27 17">
<path fill-rule="evenodd"  fill="#26272d"
 d="M8.615021,15.999023 C4.4096985,15.999023 1.0007019,12.641602 1.0007019,8.499512 C1.0007019,4.3583984 4.4096985,1.0004883 8.615021,1.0004883 C10.595032,1.0004883 12.397583,1.7451172 13.751709,2.9658203 C13.751709,2.9658203 11.507629,5.129883 11.507629,5.129883 C10.726929,4.479004 9.717957,4.085449 8.615021,4.085449 C6.1397705,4.085449 4.1332397,6.0615234 4.1332397,8.499512 C4.1332397,10.9375 6.1397705,12.9140625 8.615021,12.9140625 C10.53009,12.9140625 12.163757,11.730957 12.8055725,10.06543 C12.8055725,10.06543 8.518616,10.06543 8.518616,10.06543 C8.518616,10.06543 8.518616,6.9335938 8.518616,6.9335938 C8.518616,6.9335938 12.8055725,6.9335938 12.8055725,6.9335938 C12.8055725,6.9335938 16.036713,6.9335938 16.036713,6.9335938 C16.036713,6.9335938 16.062561,6.9335938 16.062561,6.9335938 C16.171661,7.438965 16.22934,7.9628906 16.22934,8.499512 C16.22934,12.641602 12.820435,15.999023 8.615021,15.999023 ZM25.000305,9.069824 C25.000305,9.069824 22.349854,9.069824 22.349854,9.069824 C22.349854,9.069824 22.349854,11.680176 22.349854,11.680176 C22.349854,11.680176 20.422089,11.680176 20.422089,11.680176 C20.422089,11.680176 20.422089,9.069824 20.422089,9.069824 C20.422089,9.069824 17.771545,9.069824 17.771545,9.069824 C17.771545,9.069824 17.771545,7.1708984 17.771545,7.1708984 C17.771545,7.1708984 20.422089,7.1708984 20.422089,7.1708984 C20.422089,7.1708984 20.422089,4.560547 20.422089,4.560547 C20.422089,4.560547 22.349854,4.560547 22.349854,4.560547 C22.349854,4.560547 22.349854,7.1708984 22.349854,7.1708984 C22.349854,7.1708984 25.000305,7.1708984 25.000305,7.1708984 C25.000305,7.1708984 25.000305,9.069824 25.000305,9.069824 Z"/>
</svg>