<svg xmlns="http://www.w3.org/2000/svg"
 xmlns:xlink="http://www.w3.org/1999/xlink"
 width="13px" height="20px"  viewBox="0 0 13 20">
<path fill-rule="evenodd"  fill="#26272d"
 d="M10.49704,14.783203 C10.205963,14.924805 9.648743,15.04834 9.233398,15.05957 C7.9796143,15.094238 7.9880066,13.87793 7.977234,13.199219 C7.977234,13.199219 7.977234,8.399902 7.977234,8.399902 C7.977234,8.399902 10.999908,8.399902 10.999908,8.399902 C10.999908,8.399902 10.999908,5.9995117 10.999908,5.9995117 C10.999908,5.9995117 7.977234,5.9995117 7.977234,5.9995117 C7.977234,5.9995117 7.977234,2.0 7.977234,2.0 C7.977234,2.0 5.137207,2.0043945 5.099518,2.0043945 C5.062042,2.0043945 4.9962463,2.0385742 4.9868774,2.1245117 C4.8528137,3.371582 4.3753967,5.1254883 1.9998779,5.9995117 C1.9998779,5.9995117 1.9997864,8.40332 1.9997864,8.40332 C1.9997864,8.40332 3.9801025,8.399902 3.9801025,8.399902 C3.9801025,8.399902 3.9801025,14.000488 3.9801025,14.000488 C3.9801025,15.789551 5.126892,18.061523 8.538391,18.001953 C9.689362,17.981934 10.96759,17.489258 11.250336,17.064941 C11.250336,17.064941 10.49704,14.783203 10.49704,14.783203 Z"/>
</svg>