<svg xmlns="http://www.w3.org/2000/svg"
 xmlns:xlink="http://www.w3.org/1999/xlink"
 width="18px" height="21px"  viewBox="0 0 18 21">
<path fill-rule="evenodd"  fill="#26272d"
 d="M7.7401123,13.245605 C7.267578,15.588379 6.690399,17.834473 4.980835,19.007812 C4.453186,15.466797 5.75589,12.807617 6.360718,9.984863 C5.32959,8.34375 6.48468,5.040039 8.660034,5.854004 C11.336426,6.8549805 6.341919,11.956055 9.694855,12.59375 C13.195404,13.258789 14.624512,6.851074 12.453827,4.76709 C9.317688,1.7578125 3.3242188,4.6987305 4.06131,9.006836 C4.2406006,10.060059 5.3912964,10.379395 4.5210876,11.83252 C2.5138855,11.412598 1.9145813,9.915527 1.9918518,7.9194336 C2.1159973,4.6533203 5.0959473,2.3657227 8.084961,2.0493164 C11.865143,1.6489258 15.412903,3.3618164 15.9028015,6.724121 C16.454407,10.519043 14.196777,14.628906 10.154419,14.333008 C9.05896,14.251953 8.598694,13.739746 7.7401123,13.245605 Z"/>
</svg>