<svg xmlns="http://www.w3.org/2000/svg"
 xmlns:xlink="http://www.w3.org/1999/xlink"
 width="19px" height="18px"  viewBox="0 0 19 18">
<path fill-rule="evenodd"  fill="#26272d"
 d="M4.639618,16.0083 C4.639618,16.0083 4.639618,5.88916 4.639618,5.88916 C4.639618,5.88916 1.2118225,5.88916 1.2118225,5.88916 C1.2118225,5.88916 1.2118225,16.0083 1.2118225,16.0083 C1.2118225,16.0083 4.639618,16.0083 4.639618,16.0083 C4.639618,16.0083 4.639618,16.0083 4.639618,16.0083 ZM2.9257507,4.5078125 C4.1219482,4.5078125 4.8652344,3.730957 4.8652344,2.7597656 C4.8441772,1.7670898 4.1219482,1.0112305 2.9485474,1.0112305 C1.7750549,1.0112305 1.0089722,1.7670898 1.0089722,2.7597656 C1.0089722,3.730957 1.7523499,4.5078125 2.9030762,4.5078125 C2.9030762,4.5078125 2.9257507,4.5078125 2.9257507,4.5078125 C2.9257507,4.5078125 2.9257507,4.5078125 2.9257507,4.5078125 ZM6.538666,16.0083 C6.538666,16.0083 9.968079,16.0083 9.968079,16.0083 C9.968079,16.0083 9.968079,10.356934 9.968079,10.356934 C9.968079,10.055664 9.989136,9.751953 10.081665,9.537109 C10.328278,8.931641 10.893127,8.306641 11.839355,8.306641 C13.081055,8.306641 13.577728,9.234863 13.577728,10.595215 C13.577728,10.595215 13.577728,16.0083 13.577728,16.0083 C13.577728,16.0083 17.007141,16.0083 17.007141,16.0083 C17.007141,16.0083 17.007141,10.206055 17.007141,10.206055 C17.007141,7.097168 15.31427,5.6523438 13.05835,5.6523438 C11.208038,5.6523438 10.396545,6.6660156 9.945374,7.3569336 C9.945374,7.3569336 9.968079,7.3569336 9.968079,7.3569336 C9.968079,7.3569336 9.968079,5.88916 9.968079,5.88916 C9.968079,5.88916 6.538666,5.88916 6.538666,5.88916 C6.584137,6.838379 6.538666,16.0083 6.538666,16.0083 C6.538666,16.0083 6.538666,16.0083 6.538666,16.0083 Z"/>
</svg>