<svg width="10" height="2" viewBox="0 0 10 2" fill="none" xmlns="http://www.w3.org/2000/svg">
<path d="M6.41313 1.26678L9.47313 -1.79322C9.5973 -1.91813 9.66699 -2.0871 9.66699 -2.26322C9.66699 -2.43934 9.5973 -2.60831 9.47313 -2.73322C9.41116 -2.79571 9.33742 -2.8453 9.25618 -2.87915C9.17494 -2.91299 9.0878 -2.93042 8.9998 -2.93042C8.91179 -2.93042 8.82465 -2.91299 8.74341 -2.87915C8.66217 -2.8453 8.58844 -2.79571 8.52646 -2.73322L5.47313 0.333446C5.41115 0.395931 5.33742 0.445527 5.25618 0.479373C5.17494 0.513219 5.0878 0.530645 4.9998 0.530645C4.91179 0.530645 4.82465 0.513219 4.74341 0.479373C4.66217 0.445527 4.58844 0.395931 4.52646 0.333446L1.47313 -2.73322C1.34848 -2.85876 1.17906 -2.92963 1.00215 -2.93026C0.825243 -2.93088 0.65533 -2.86121 0.529795 -2.73655C0.404259 -2.6119 0.333382 -2.44249 0.332756 -2.26558C0.332131 -2.08867 0.40181 -1.91876 0.526462 -1.79322L3.58646 1.26678C3.96146 1.64131 4.46979 1.85169 4.9998 1.85169C5.5298 1.85169 6.03813 1.64131 6.41313 1.26678V1.26678Z" fill="#141414"/>
</svg>
