<svg width="29" height="21" viewBox="0 0 29 21" fill="none" xmlns="http://www.w3.org/2000/svg">
<path d="M25.2801 3.98965L14.5001 11.9234L3.72012 3.98965M2.44824 1.3634C2.08357 1.3634 1.73383 1.50826 1.47597 1.76613C1.21811 2.02399 1.07324 2.37373 1.07324 2.7384V18.2828C1.07324 18.6474 1.21811 18.9972 1.47597 19.255C1.73383 19.5129 2.08357 19.6578 2.44824 19.6578H26.552C26.9167 19.6578 27.2664 19.5129 27.5243 19.255C27.7821 18.9972 27.927 18.6474 27.927 18.2828V2.71777C27.927 2.3531 27.7821 2.00336 27.5243 1.7455C27.2664 1.48764 26.9167 1.34277 26.552 1.34277H2.44824V1.3634Z" stroke="black" stroke-width="2" stroke-linecap="round" stroke-linejoin="round"/>
</svg>
