<svg width="22" height="24" viewBox="0 0 22 24" fill="none" xmlns="http://www.w3.org/2000/svg">
<path d="M5.02441 1.98671C4.94324 1.87779 4.84078 1.78813 4.72384 1.7237C4.6069 1.65926 4.47815 1.62151 4.34615 1.61296C4.21415 1.60442 4.08191 1.62527 3.95823 1.67413C3.83455 1.72299 3.72224 1.79874 3.62878 1.89635L2.20703 3.38084C1.54291 4.07504 1.29816 5.05754 1.58828 5.91955C2.79243 9.48748 4.75119 12.7268 7.31928 15.3974C9.87943 18.0762 12.9849 20.1194 16.4053 21.3755C17.2317 21.6781 18.1735 21.4228 18.839 20.7301L20.2608 19.247C20.3544 19.1495 20.427 19.0324 20.4738 18.9034C20.5207 18.7743 20.5406 18.6364 20.5325 18.4987C20.5243 18.361 20.4881 18.2267 20.4263 18.1047C20.3645 17.9828 20.2786 17.8759 20.1742 17.7912L17.002 15.2181C16.8905 15.1278 16.7607 15.0652 16.6226 15.0349C16.4844 15.0046 16.3415 15.0074 16.2045 15.0431L13.1933 15.8277C12.7913 15.9324 12.3702 15.9269 11.971 15.8115C11.5717 15.6961 11.2079 15.4749 10.9149 15.1693L7.53791 11.6453C7.24472 11.3398 7.03236 10.9603 6.92151 10.5439C6.81067 10.1274 6.80512 9.68802 6.90541 9.26863L7.65891 6.12752C7.69316 5.98466 7.69585 5.83555 7.66679 5.69144C7.63773 5.54733 7.57768 5.41199 7.49116 5.29563L5.02441 1.98671ZM2.59066 0.814891C2.83128 0.563817 3.12035 0.369012 3.43868 0.243412C3.757 0.117812 4.09731 0.0642909 4.43698 0.0864024C4.77666 0.108514 5.10794 0.205752 5.40883 0.37166C5.70972 0.537568 5.97333 0.76835 6.18216 1.04868L8.64891 4.35616C9.10128 4.96287 9.26078 5.75317 9.08203 6.499L8.32991 9.64011C8.29102 9.8028 8.29312 9.97321 8.33601 10.1348C8.37889 10.2964 8.4611 10.4437 8.57466 10.5624L11.953 14.0864C12.0669 14.2051 12.2084 14.291 12.3635 14.3358C12.5187 14.3805 12.6824 14.3826 12.8385 14.3417L15.8484 13.5572C16.2013 13.4651 16.5695 13.458 16.9254 13.5363C17.2813 13.6145 17.6155 13.7762 17.9027 14.009L21.0734 16.5821C22.2133 17.5072 22.3178 19.2642 21.2975 20.327L19.8758 21.8101C18.8583 22.8715 17.3375 23.3376 15.9199 22.817C12.2915 21.4853 8.99716 19.3185 6.28116 16.4774C3.55768 13.6447 1.4805 10.2087 0.203659 6.42442C-0.294091 4.94709 0.152784 3.35933 1.17028 2.29795L2.59203 0.814891H2.59066Z" fill="#181818"/>
</svg>
