<svg width="25" height="25" viewBox="0 0 25 25" fill="none" xmlns="http://www.w3.org/2000/svg">
<path d="M16.3368 0H8.66255C1.65942 0 -0.000732422 1.66016 -0.000732422 8.66328V16.3375C-0.000732422 23.3406 1.65942 25.0008 8.66255 25.0008H16.3368C23.3399 25.0008 25 23.3406 25 16.3375V8.66328C25 1.66016 23.3235 0 16.3368 0ZM20.1821 17.8344H18.3672C17.6797 17.8344 17.468 17.2891 16.2313 16.0359C15.1571 14.9945 14.6813 14.8563 14.4165 14.8563C14.0422 14.8563 13.936 14.9617 13.936 15.475V17.1148C13.936 17.5547 13.7977 17.8188 12.6336 17.8188C10.7086 17.8188 8.57271 16.6547 7.07505 14.4859C4.81646 11.3078 4.19849 8.92734 4.19849 8.43516C4.19849 8.17031 4.30396 7.92266 4.81255 7.92266H6.6313C7.09146 7.92266 7.26646 8.13437 7.44536 8.62656C8.34458 11.2227 9.84224 13.4969 10.4602 13.4969C10.6883 13.4969 10.7938 13.3914 10.7938 12.8094V10.1281C10.7243 8.89141 10.0735 8.78516 10.0735 8.34609C10.0735 8.13437 10.2485 7.92266 10.529 7.92266H13.3891C13.7758 7.92266 13.918 8.13437 13.918 8.58984V12.207C13.918 12.5977 14.093 12.7359 14.1985 12.7359C14.4266 12.7359 14.6219 12.5977 15.0446 12.1742C16.3508 10.7094 17.2868 8.45078 17.2868 8.45078C17.4086 8.18594 17.6204 7.93828 18.0805 7.93828H19.8993C20.4446 7.93828 20.5665 8.21875 20.4446 8.60938C20.2165 9.66719 17.9907 12.8086 17.9907 12.8086C17.7993 13.1258 17.7258 13.2641 17.9907 13.618C18.186 13.8828 18.8211 14.432 19.2438 14.9242C20.0211 15.807 20.6188 16.5477 20.7782 17.0602C20.9571 17.5688 20.693 17.8336 20.1797 17.8336L20.1821 17.8344Z" fill="#64768B"/>
</svg>
