<svg width="27" height="27" viewBox="0 0 27 27" fill="none" xmlns="http://www.w3.org/2000/svg">
<path d="M26.4166 6.46058C26.4021 5.90332 26.359 5.34717 26.2874 4.79433C26.191 4.31012 26.0302 3.84096 25.8095 3.39933C25.5786 2.92026 25.2686 2.48357 24.8924 2.10766C24.5128 1.73593 24.0769 1.42643 23.6008 1.19058C23.1585 0.974153 22.6894 0.81777 22.2058 0.725579C21.6582 0.643558 21.106 0.596103 20.5524 0.583496H6.46034C5.90307 0.59801 5.34693 0.641122 4.79409 0.712663C4.30987 0.809109 3.84072 0.969838 3.39909 1.19058C2.92001 1.42145 2.48333 1.73149 2.10742 2.10766C1.73568 2.4873 1.42618 2.92321 1.19034 3.39933C0.973909 3.84155 0.817526 4.3107 0.725335 4.79433C0.643314 5.34191 0.595859 5.89412 0.583252 6.44766V20.5397C0.597766 21.097 0.640878 21.6532 0.712419 22.206C0.808865 22.6902 0.969594 23.1594 1.19034 23.601C1.4212 24.0801 1.73125 24.5168 2.10742 24.8927C2.48705 25.2644 2.92297 25.5739 3.39909 25.8097C3.8413 26.0262 4.31045 26.1826 4.79409 26.2747C5.34167 26.3568 5.89387 26.4042 6.44742 26.4168H20.5395C21.0968 26.4023 21.6529 26.3592 22.2058 26.2877C22.69 26.1912 23.1591 26.0305 23.6008 25.8097C24.0798 25.5789 24.5165 25.2688 24.8924 24.8927C25.2642 24.513 25.5737 24.0771 25.8095 23.601C26.0259 23.1588 26.1823 22.6896 26.2745 22.206C26.3565 21.6584 26.404 21.1062 26.4166 20.5527V6.46058ZM13.797 22.5418C12.2458 22.5342 10.7217 22.1343 9.36659 21.3793L4.45825 22.671L5.74992 17.866C4.91694 16.4664 4.47115 14.8705 4.45825 13.2418C4.4634 11.4114 5.01006 9.6235 6.02938 8.1032C7.04871 6.5829 8.49512 5.39822 10.1864 4.69838C11.8778 3.99853 13.7384 3.81482 15.5339 4.17038C17.3294 4.52593 18.9796 5.40485 20.2766 6.69644C21.5735 7.98803 22.4593 9.63453 22.8223 11.4286C23.1853 13.2226 23.0094 15.0839 22.3166 16.7782C21.6238 18.4724 20.4451 19.9237 18.9291 20.9493C17.413 21.975 15.6274 22.5291 13.797 22.5418ZM13.797 5.58225C12.4276 5.59792 11.0868 5.97618 9.9111 6.67853C8.73541 7.38088 7.76683 8.38223 7.10397 9.58063C6.44111 10.779 6.10765 12.1317 6.13753 13.5008C6.16741 14.87 6.55957 16.2068 7.27409 17.3752L7.45492 17.6722L6.67992 20.501L9.62492 19.7002L9.90909 19.8681C11.084 20.5601 12.4206 20.9299 13.7841 20.9402C15.8395 20.9402 17.8108 20.1236 19.2642 18.6702C20.7176 17.2168 21.5341 15.2456 21.5341 13.1902C21.5341 11.1347 20.7176 9.16349 19.2642 7.71009C17.8108 6.25668 15.8395 5.44016 13.7841 5.44016L13.797 5.58225ZM18.3178 16.5872C18.1487 16.8694 17.9221 17.113 17.6529 17.3021C17.3837 17.4912 17.0778 17.6217 16.7549 17.6852C16.2725 17.7733 15.7759 17.7423 15.3083 17.5947C14.8682 17.4572 14.4369 17.2933 14.0166 17.1039C12.4198 16.3026 11.0579 15.1011 10.0641 13.6164C9.52402 12.9286 9.19633 12.0981 9.12117 11.2268C9.11348 10.8649 9.18194 10.5054 9.32213 10.1716C9.46232 9.83782 9.67109 9.53723 9.93492 9.28933C10.0126 9.20122 10.108 9.1304 10.2148 9.08146C10.3216 9.03251 10.4374 9.00652 10.5549 9.00516H10.9166C11.0587 9.00516 11.2524 9.00516 11.4333 9.40558C11.6141 9.806 12.092 11.0072 12.1566 11.1235C12.1883 11.1855 12.2049 11.2541 12.2049 11.3237C12.2049 11.3933 12.1883 11.4619 12.1566 11.5239C12.0995 11.6643 12.0211 11.795 11.9241 11.9114C11.8078 12.0535 11.6787 12.2214 11.5753 12.3247C11.472 12.4281 11.3428 12.5572 11.472 12.7897C11.8234 13.3829 12.2585 13.9223 12.7637 14.3914C13.3138 14.8775 13.9428 15.2663 14.6237 15.541C14.8562 15.6572 14.9983 15.6443 15.1274 15.541C15.2566 15.4377 15.7087 14.8693 15.8637 14.6368C16.0187 14.4043 16.1737 14.4431 16.3803 14.5206C16.587 14.5981 17.7366 15.1535 17.9691 15.2697C18.2016 15.386 18.3437 15.4377 18.4083 15.541C18.4643 15.8791 18.4332 16.2258 18.3178 16.5485V16.5872Z" fill="#64768B"/>
</svg>
