<svg xmlns="http://www.w3.org/2000/svg"
 xmlns:xlink="http://www.w3.org/1999/xlink"
 width="8px" height="12px"  viewBox="0 0 8 12">
<path fill-rule="evenodd"  fill="#c0301c"
 d="M1.0,10.167969 C1.0,10.258301 1.0411987,10.338135 1.1029968,10.398682 C1.1029968,10.398682 1.6185303,10.899658 1.6185303,10.899658 C1.6803589,10.959717 1.7731323,11.0 1.8556213,11.0 C1.9381104,11.0 2.0309143,10.959717 2.0927124,10.899658 C2.0927124,10.899658 6.8968506,6.2304688 6.8968506,6.2304688 C6.95874,6.170166 6.999939,6.079834 6.999939,6.0 C6.999939,5.919922 6.95874,5.82959 6.8968506,5.769287 C6.8968506,5.769287 2.0927124,1.1000977 2.0927124,1.1000977 C2.0309143,1.0400391 1.9381104,0.99975586 1.8556213,0.99975586 C1.7731323,0.99975586 1.6803589,1.0400391 1.6185303,1.1000977 C1.6185303,1.1000977 1.1029968,1.6013184 1.1029968,1.6013184 C1.0411987,1.6611328 1.0,1.7514648 1.0,1.831543 C1.0,1.9116211 1.0411987,2.001709 1.1029968,2.0620117 C1.1029968,2.0620117 5.1545715,6.0 5.1545715,6.0 C5.1545715,6.0 1.1029968,9.937256 1.1029968,9.937256 C1.0411987,9.998047 1.0,10.087891 1.0,10.167969 Z"/>
</svg>