<svg xmlns="http://www.w3.org/2000/svg"
 xmlns:xlink="http://www.w3.org/1999/xlink"
 width="11px" height="17px"  viewBox="0 0 11 17">
<path fill-rule="evenodd"  fill="#dddddd"
 d="M9.999954,3.1639404 C9.999954,3.0374756 9.944916,2.925537 9.862518,2.8414307 C9.862518,2.8414307 9.175217,2.1396484 9.175217,2.1396484 C9.092712,2.055542 8.969025,1.9996338 8.85907,1.9996338 C8.749115,1.9996338 8.625427,2.055542 8.542923,2.1396484 C8.542923,2.1396484 2.1373901,8.677002 2.1373901,8.677002 C2.0548859,8.761108 1.9999542,8.887207 1.9999542,8.999512 C1.9999542,9.111816 2.0548859,9.237915 2.1373901,9.32251 C2.1373901,9.32251 8.542923,15.859375 8.542923,15.859375 C8.625427,15.943481 8.749115,15.999878 8.85907,15.999878 C8.969025,15.999878 9.092712,15.943481 9.175217,15.859375 C9.175217,15.859375 9.862518,15.157959 9.862518,15.157959 C9.944916,15.073853 9.999954,14.947388 9.999954,14.835449 C9.999954,14.723145 9.944916,14.59668 9.862518,14.512573 C9.862518,14.512573 4.460434,8.999512 4.460434,8.999512 C4.460434,8.999512 9.862518,3.4865723 9.862518,3.4865723 C9.944916,3.4024658 9.999954,3.276245 9.999954,3.1639404 Z"/>
</svg>