<svg xmlns="http://www.w3.org/2000/svg"
 xmlns:xlink="http://www.w3.org/1999/xlink"
 width="12px" height="19px"  viewBox="0 0 12 19">
<path fill-rule="evenodd"  fill="#ffffff"
 d="M10.097321,2.0029297 C10.097321,2.0029297 8.079071,1.9993896 8.079071,1.9993896 C5.811798,1.9993896 4.3466797,3.545044 4.3466797,5.937134 C4.3466797,5.937134 4.3466797,7.752075 4.3466797,7.752075 C4.3466797,7.752075 2.3174438,7.752075 2.3174438,7.752075 C2.1420593,7.752075 1.9999695,7.8986816 1.9999695,8.078857 C1.9999695,8.078857 1.9999695,10.709351 1.9999695,10.709351 C1.9999695,10.889893 2.1421509,11.0354 2.3174438,11.0354 C2.3174438,11.0354 4.3465576,11.0354 4.3465576,11.0354 C4.3465576,11.0354 4.3465576,17.673096 4.3465576,17.673096 C4.3465576,17.853638 4.4884644,17.999878 4.6637573,17.999878 C4.6637573,17.999878 7.311249,17.999878 7.311249,17.999878 C7.4866333,17.999878 7.6286316,17.853271 7.6286316,17.673096 C7.6286316,17.673096 7.6286316,11.0354 7.6286316,11.0354 C7.6286316,11.0354 10.001099,11.0354 10.001099,11.0354 C10.176575,11.0354 10.318481,10.889893 10.318481,10.709351 C10.318481,10.709351 10.3194275,8.078857 10.3194275,8.078857 C10.3194275,7.9920654 10.285858,7.909424 10.22644,7.8481445 C10.166931,7.786743 10.086182,7.752075 10.001953,7.752075 C10.001953,7.752075 7.628845,7.752075 7.628845,7.752075 C7.628845,7.752075 7.628845,6.213379 7.628845,6.213379 C7.628845,5.474121 7.800293,5.0983887 8.737396,5.0983887 C8.737396,5.0983887 10.096954,5.0980225 10.096954,5.0980225 C10.272125,5.0980225 10.414246,4.951782 10.414246,4.7716064 C10.414246,4.7716064 10.414246,2.3293457 10.414246,2.3293457 C10.414246,2.1488037 10.272339,2.003296 10.097321,2.0029297 Z"/>
</svg>