<svg xmlns="http://www.w3.org/2000/svg"
 xmlns:xlink="http://www.w3.org/1999/xlink"
 width="19px" height="16px"  viewBox="0 0 19 16">
<path fill-rule="evenodd"  fill="#ffffff"
 d="M16.969177,2.074829 C16.3349,2.4401855 15.632507,2.7055664 14.885315,2.849121 C14.287079,2.2279053 13.435455,1.8413086 12.491974,1.8413086 C10.680267,1.8413086 9.2118225,3.2700195 9.2118225,5.030884 C9.2118225,5.2805176 9.241089,5.524048 9.296783,5.75708 C6.5713806,5.6243896 4.1545715,4.354248 2.5370483,2.4246826 C2.2545776,2.8950195 2.0935059,3.442505 2.0935059,4.027832 C2.0935059,5.1347656 2.6731262,6.11084 3.552124,6.682251 C3.0146484,6.664551 2.5091858,6.5213623 2.0667725,6.2817383 C2.0667725,6.2817383 2.0667725,6.321533 2.0667725,6.321533 C2.0667725,7.866699 3.1975708,9.1553955 4.697113,9.449707 C4.422455,9.522339 4.1326294,9.5616455 3.833191,9.5616455 C3.62146,9.5616455 3.4165344,9.5407715 3.2154846,9.503784 C3.6332092,10.770752 4.843994,11.692871 6.2785034,11.719971 C5.1566772,12.574463 3.7419128,13.08374 2.205841,13.08374 C1.940918,13.08374 1.6799927,13.069092 1.4231567,13.040161 C2.875122,13.94458 4.598114,14.473145 6.450836,14.473145 C12.483215,14.473145 15.78186,9.613281 15.78186,5.397827 C15.78186,5.397827 15.771179,4.984619 15.771179,4.984619 C16.414062,4.536743 16.971008,3.9753418 17.410156,3.3360596 C16.821747,3.5894775 16.190613,3.761963 15.52713,3.838379 C16.204346,3.4432373 16.723328,2.817871 16.969177,2.074829 Z"/>
</svg>