<svg xmlns="http://www.w3.org/2000/svg"
 xmlns:xlink="http://www.w3.org/1999/xlink"
 width="19px" height="19px"  viewBox="0 0 19 19">
<path fill-rule="evenodd"  fill="#ffffff"
 d="M2.5847473,5.779297 C2.5847473,7.065674 3.0296326,7.9938965 3.9071045,8.539551 C4.6253357,8.986694 5.459503,9.053467 5.892578,9.053467 C5.997864,9.053467 6.0821533,9.049561 6.1412964,9.045654 C6.1412964,9.045654 6.0035706,9.909546 6.667328,10.764893 C6.667328,10.764893 6.637207,10.764526 6.637207,10.764526 C5.4873657,10.764893 1.7365417,10.996826 1.7365417,13.973755 C1.7365417,17.002441 5.18161,17.156372 5.872528,17.156372 C5.9265137,17.156372 5.958191,17.15564 5.958191,17.15564 C5.9658203,17.15564 6.0151978,17.157593 6.0993347,17.157593 C6.5427856,17.157593 7.689087,17.103516 8.753693,16.603882 C10.134613,15.956543 10.835358,14.830688 10.835358,13.25769 C10.835358,11.737915 9.768188,10.833618 8.988861,10.171875 C8.513275,9.769531 8.102417,9.421509 8.102417,9.08313 C8.102417,8.737793 8.402435,8.47937 8.781921,8.151001 C9.3966675,7.6204834 9.97583,6.86499 9.97583,5.4375 C9.97583,4.182007 9.807007,3.3398438 8.768555,2.8050537 C8.876892,2.751831 9.2595215,2.7124023 9.449005,2.687378 C10.011963,2.6132812 10.835358,2.5288086 10.835358,2.085083 C10.835358,2.085083 10.835358,1.9993896 10.835358,1.9993896 C10.835358,1.9993896 6.733032,1.9993896 6.733032,1.9993896 C6.691925,2.0002441 2.5847473,2.1472168 2.5847473,5.779297 ZM9.206665,13.54126 C9.285156,14.752808 8.211914,15.6467285 6.6008606,15.759766 C4.9639893,15.875122 3.6166382,15.163696 3.53833,13.954102 C3.500183,13.373047 3.7650146,12.80249 4.2832336,12.349487 C4.809204,11.889526 5.5306396,11.606445 6.315796,11.550415 C6.4086914,11.544678 6.5004272,11.5407715 6.592102,11.5407715 C8.106506,11.5407715 9.132477,12.400391 9.206665,13.54126 ZM8.135498,4.9501953 C8.537964,6.3167725 7.9303894,7.7458496 6.9620056,8.009399 C6.85083,8.039429 6.7354126,8.054932 6.619171,8.054932 C5.731964,8.054932 4.8528748,7.1879883 4.5273743,5.994629 C4.345215,5.3240967 4.3599243,4.738037 4.5686646,4.1746826 C4.7738953,3.6202393 5.1421204,3.2452393 5.6059875,3.1195068 C5.7174683,3.0889893 5.832947,3.0736084 5.9492188,3.0736084 C7.0204773,3.0736084 7.70932,3.5021973 8.135498,4.9501953 ZM15.047363,7.926758 C15.047363,7.926758 15.047363,5.3430176 15.047363,5.3430176 C15.047363,5.3430176 13.352478,5.3430176 13.352478,5.3430176 C13.352478,5.3430176 13.352478,7.926758 13.352478,7.926758 C13.352478,7.926758 10.676483,7.926758 10.676483,7.926758 C10.676483,7.926758 10.676483,9.56311 10.676483,9.56311 C10.676483,9.56311 13.352478,9.56311 13.352478,9.56311 C13.352478,9.56311 13.352478,12.146484 13.352478,12.146484 C13.352478,12.146484 15.047363,12.146484 15.047363,12.146484 C15.047363,12.146484 15.047363,9.56311 15.047363,9.56311 C15.047363,9.56311 17.723572,9.56311 17.723572,9.56311 C17.723572,9.56311 17.723572,7.926758 17.723572,7.926758 C17.723572,7.926758 15.047363,7.926758 15.047363,7.926758 Z"/>
</svg>