<svg xmlns="http://www.w3.org/2000/svg"
 xmlns:xlink="http://www.w3.org/1999/xlink"
 width="17px" height="17px"  viewBox="0 0 17 17">
<path fill-rule="evenodd"  fill="#ffffff"
 d="M5.180908,6.548584 C5.180908,6.548584 2.1730957,6.548584 2.1730957,6.548584 C2.1730957,6.548584 2.1730957,15.999634 2.1730957,15.999634 C2.1730957,15.999634 5.180908,15.999634 5.180908,15.999634 C5.180908,15.999634 5.180908,6.548584 5.180908,6.548584 ZM5.3723145,3.630249 C5.3632507,2.7054443 4.7252502,1.9997559 3.695282,1.9997559 C2.674469,1.9997559 1.999939,2.7054443 1.999939,3.630249 C1.999939,4.536133 2.6470947,5.2611084 3.658844,5.2611084 C3.658844,5.2611084 3.677063,5.2611084 3.677063,5.2611084 C3.677063,5.2611084 3.677063,5.2611084 3.677063,5.2611084 C4.7252502,5.2611084 5.3814697,4.536133 5.3723145,3.630249 ZM15.9999695,10.582764 C15.9999695,7.6833496 14.523376,6.329468 12.545563,6.329468 C10.923157,6.329468 10.212219,7.2731934 9.820251,7.921753 C9.820251,7.921753 9.83847,7.921753 9.83847,7.921753 C9.83847,7.921753 9.83847,6.548584 9.83847,6.548584 C9.83847,6.548584 6.839813,6.548584 6.839813,6.548584 C6.839813,6.548584 6.876251,7.435669 6.839813,15.999634 C6.839813,15.999634 6.839813,15.999634 6.839813,15.999634 C6.839813,15.999634 9.83847,15.999634 9.83847,15.999634 C9.83847,15.999634 9.83847,10.725952 9.83847,10.725952 C9.83847,10.439575 9.865845,10.162964 9.938782,9.953125 C10.157471,9.390625 10.649658,8.809082 11.4791565,8.809082 C12.563782,8.809082 13.001221,9.676514 13.001221,10.945435 C13.001221,10.945435 13.001221,15.999634 13.001221,15.999634 C13.001221,15.999634 15.9999695,15.999634 15.9999695,15.999634 C15.9999695,15.999634 15.9999695,10.582764 15.9999695,10.582764 Z"/>
</svg>