<svg xmlns="http://www.w3.org/2000/svg"
 xmlns:xlink="http://www.w3.org/1999/xlink"
 width="19px" height="15px"  viewBox="0 0 19 15">
<path fill-rule="evenodd"  fill="#ffffff"
 d="M18.0,3.4248047 C17.411072,3.6591797 16.771545,3.8276367 16.111572,3.8930664 C16.79187,3.5185547 17.309631,2.9277344 17.553284,2.2246094 C16.923828,2.5717773 16.213135,2.8242188 15.472046,2.9560547 C14.873047,2.3652344 14.020264,1.9995117 13.07605,1.9995117 C11.25885,1.9995117 9.796936,3.3588867 9.796936,5.027832 C9.796936,5.262207 9.827393,5.4960938 9.878113,5.7216797 C7.1573486,5.590332 4.730957,4.390625 3.1167603,2.552246 C2.8324585,3.0024414 2.670044,3.5185547 2.670044,4.0810547 C2.670044,5.1308594 3.2487183,6.0585938 4.131897,6.602539 C3.593872,6.5844727 3.0862427,6.442871 2.6497192,6.2182617 C2.6497192,6.227539 2.6497192,6.246582 2.6497192,6.2558594 C2.6497192,7.7280273 3.7766113,8.946777 5.279114,9.228027 C5.005005,9.292969 4.7106323,9.331055 4.4161987,9.331055 C4.203003,9.331055 3.999939,9.312012 3.796875,9.28418 C4.213196,10.483887 5.4212646,11.355469 6.862854,11.383789 C5.736023,12.199707 4.324829,12.677734 2.791809,12.677734 C2.5177612,12.677734 2.263855,12.668457 2.0,12.640625 C3.4517822,13.50293 5.1776123,13.999512 7.0354614,13.999512 C13.065918,13.999512 16.365479,9.386719 16.365479,5.383789 C16.365479,5.2529297 16.365479,5.121582 16.355286,4.9902344 C16.994873,4.559082 17.553284,4.0249023 18.0,3.4248047 Z"/>
</svg>