<svg width="176" height="44" viewBox="0 0 176 44" fill="none" xmlns="http://www.w3.org/2000/svg">
<path d="M145.521 7.21829C145.08 7.21829 144.674 7.15012 144.301 7.01391C143.927 6.8777 143.603 6.71566 143.328 6.5279L143.677 6.03723C143.934 6.21901 144.216 6.36431 144.525 6.47325C144.834 6.58232 145.196 6.63685 145.612 6.63685C145.992 6.63685 146.274 6.56868 146.461 6.43247C146.647 6.29614 146.741 6.13422 146.741 5.94647C146.741 5.86168 146.725 5.78287 146.695 5.71016C146.664 5.63757 146.598 5.56797 146.498 5.50124C146.397 5.43463 146.254 5.37113 146.071 5.3105C145.887 5.24998 145.646 5.18935 145.346 5.12872C144.765 5.0077 144.329 4.84566 144.039 4.64271C143.748 4.43989 143.603 4.17178 143.603 3.83872C143.603 3.66317 143.643 3.49802 143.723 3.34363C143.802 3.18912 143.92 3.05602 144.076 2.94385C144.232 2.83179 144.424 2.74401 144.654 2.68039C144.883 2.61677 145.15 2.58496 145.456 2.58496C145.799 2.58496 146.129 2.64105 146.447 2.7531C146.765 2.86528 147.034 2.99694 147.254 3.14822L146.887 3.62968C146.679 3.49048 146.45 3.37843 146.199 3.29352C145.949 3.20885 145.679 3.1664 145.392 3.1664C145.013 3.1664 144.747 3.23002 144.594 3.35714C144.441 3.48426 144.365 3.63279 144.365 3.80225C144.365 3.99622 144.466 4.14296 144.668 4.24293C144.869 4.34279 145.199 4.44145 145.658 4.53819C146.031 4.617 146.337 4.70036 146.576 4.78801C146.814 4.87591 147.002 4.97421 147.14 5.08328C147.277 5.19234 147.372 5.31349 147.424 5.44671C147.476 5.57993 147.502 5.73145 147.502 5.9009C147.502 6.08256 147.459 6.25225 147.374 6.40963C147.288 6.56725 147.161 6.70645 146.993 6.82759C146.825 6.94885 146.617 7.04428 146.369 7.11377C146.121 7.18337 145.839 7.21829 145.521 7.21829Z" fill="#757A8E"/>
<path d="M151.796 7.21836C151.472 7.21836 151.2 7.17435 150.979 7.08657C150.759 6.99879 150.582 6.87466 150.447 6.71405C150.313 6.55369 150.216 6.36127 150.158 6.13716C150.1 5.91317 150.071 5.66479 150.071 5.39225V3.3028H148.814V2.73954L150.099 2.6941L150.2 1.27686H150.823V2.6941H153.016V3.3028H150.823V5.40145C150.823 5.60129 150.842 5.77541 150.878 5.92382C150.915 6.07222 150.976 6.19791 151.062 6.30076C151.148 6.40384 151.264 6.4811 151.411 6.53252C151.557 6.58406 151.738 6.60977 151.952 6.60977C152.166 6.60977 152.358 6.5916 152.53 6.55524C152.701 6.51889 152.866 6.47045 153.025 6.40982L153.19 6.95491C152.988 7.02761 152.776 7.0898 152.553 7.14122C152.33 7.19265 152.077 7.21836 151.796 7.21836Z" fill="#757A8E"/>
<path d="M155.943 7.21811C155.405 7.21811 155.012 7.06826 154.764 6.76845C154.516 6.46865 154.393 6.02509 154.393 5.43756V2.69385H155.154V5.33758C155.154 5.75542 155.232 6.06587 155.388 6.26882C155.544 6.47176 155.808 6.57317 156.181 6.57317C156.438 6.57317 156.671 6.50811 156.879 6.37788C157.087 6.24777 157.316 6.04028 157.567 5.75554V2.69385H158.319V7.10904H157.704L157.64 6.33686H157.603C157.377 6.59732 157.131 6.80923 156.865 6.97271C156.599 7.13631 156.291 7.21811 155.943 7.21811Z" fill="#757A8E"/>
<path d="M161.676 7.2181C161.382 7.2181 161.118 7.16655 160.882 7.06359C160.647 6.96074 160.444 6.81078 160.272 6.61394C160.101 6.41722 159.97 6.17648 159.878 5.89162C159.786 5.607 159.74 5.27993 159.74 4.9104C159.74 4.55319 159.797 4.23054 159.91 3.94293C160.023 3.65532 160.173 3.41148 160.359 3.21165C160.546 3.01182 160.762 2.85731 161.006 2.74825C161.251 2.63918 161.505 2.58465 161.768 2.58465C162.037 2.58465 162.277 2.63464 162.488 2.73462C162.699 2.83447 162.902 2.97535 163.098 3.157H163.125L163.089 2.33938V0.640625H163.841V7.10903H163.217L163.153 6.5276H163.125C162.942 6.71535 162.723 6.87739 162.469 7.0136C162.216 7.14993 161.951 7.2181 161.676 7.2181ZM161.832 6.59122C162.272 6.59122 162.691 6.37022 163.089 5.92798V3.72947C162.887 3.54184 162.69 3.40849 162.497 3.32969C162.304 3.251 162.11 3.21165 161.915 3.21165C161.719 3.21165 161.537 3.25255 161.369 3.33423C161.2 3.41603 161.054 3.53107 160.928 3.67948C160.803 3.82801 160.704 4.00512 160.63 4.21093C160.557 4.41686 160.52 4.64695 160.52 4.90131C160.52 5.43432 160.635 5.84929 160.864 6.14587C161.094 6.44293 161.416 6.59122 161.832 6.59122Z" fill="#757A8E"/>
<path d="M167.593 7.10925V3.30276H165.52V2.69406H168.345V7.10925H167.593ZM167.886 1.76737C167.715 1.76737 167.571 1.71439 167.455 1.60832C167.339 1.50248 167.281 1.3616 167.281 1.18593C167.281 1.01037 167.339 0.8695 167.455 0.763425C167.571 0.657589 167.715 0.604492 167.886 0.604492C168.058 0.604492 168.201 0.657589 168.318 0.763425C168.434 0.8695 168.492 1.01025 168.492 1.18593C168.492 1.3616 168.434 1.50248 168.318 1.60832C168.201 1.71439 168.058 1.76737 167.886 1.76737Z" fill="#757A8E"/>
<path d="M172.95 7.21841C172.656 7.21841 172.376 7.16687 172.11 7.0639C171.844 6.96105 171.61 6.81109 171.408 6.61425C171.207 6.41753 171.046 6.17524 170.927 5.88739C170.808 5.59978 170.748 5.27426 170.748 4.91071C170.748 4.54142 170.808 4.2128 170.927 3.92507C171.046 3.63746 171.207 3.39362 171.408 3.19367C171.61 2.99383 171.844 2.84243 172.11 2.73947C172.376 2.63662 172.656 2.58496 172.95 2.58496C173.243 2.58496 173.523 2.6365 173.789 2.73947C174.055 2.84255 174.289 2.99383 174.491 3.19367C174.693 3.3935 174.853 3.63746 174.972 3.92507C175.092 4.2128 175.151 4.54142 175.151 4.91071C175.151 5.27414 175.092 5.59978 174.972 5.88739C174.853 6.17512 174.693 6.41753 174.491 6.61425C174.289 6.81109 174.055 6.96105 173.789 7.0639C173.523 7.16687 173.243 7.21841 172.95 7.21841ZM172.95 6.60062C173.164 6.60062 173.358 6.55972 173.532 6.47804C173.706 6.39636 173.856 6.28132 173.982 6.13279C174.107 5.9845 174.203 5.80727 174.271 5.60134C174.338 5.39552 174.372 5.16532 174.372 4.91095C174.372 4.65659 174.338 4.42495 174.271 4.21591C174.203 4.00698 174.107 3.82689 173.982 3.67537C173.856 3.52409 173.707 3.40737 173.532 3.32557C173.358 3.24377 173.164 3.20299 172.95 3.20299C172.736 3.20299 172.542 3.24389 172.367 3.32557C172.193 3.40737 172.043 3.52409 171.918 3.67537C171.792 3.82689 171.696 4.00698 171.629 4.21591C171.561 4.42495 171.528 4.65659 171.528 4.91095C171.528 5.16532 171.561 5.39564 171.629 5.60134C171.696 5.80739 171.792 5.9845 171.918 6.13279C172.043 6.28132 172.193 6.39624 172.367 6.47804C172.542 6.55972 172.736 6.60062 172.95 6.60062Z" fill="#757A8E"/>
<path d="M91.998 43.9998L103.995 8.55957H114.909L102.912 43.9998H91.998Z" fill="url(#paint0_linear_2209_17041)"/>
<path d="M31.7686 42.9975L26.678 25.7672L21.6517 42.9975H9.0215L0 12.1743H11.9214L16.0454 29.1494L21.5227 12.1743H31.8974L37.3104 29.1494L41.4344 12.1743H53.4202L44.3987 42.9975H31.7686Z" fill="url(#paint1_linear_2209_17041)"/>
<path d="M77.0054 42.9974V25.8309C77.0054 22.64 75.2657 21.5552 72.4946 21.5552C69.8526 21.5552 68.4994 22.8953 67.5328 23.9802V42.9974H55.9336V0.432129H67.5328V15.6842C69.337 13.6421 72.7523 11.4085 78.2297 11.4085C85.447 11.4085 88.6044 15.6204 88.6044 20.9809V42.9974H77.0054Z" fill="url(#paint2_linear_2209_17041)"/>
<path d="M122.177 34.063V22.1294H117.021V12.1742H122.177V3.75049H133.776V12.1742H140.091V22.1295H133.776V30.7447C133.776 32.3401 134.807 33.6163 136.353 33.6163C137.384 33.6163 138.415 33.2973 138.673 33.042L140.735 41.7209C139.511 42.8057 136.804 43.763 132.874 43.763C125.979 43.763 122.177 40.5084 122.177 34.063Z" fill="url(#paint3_linear_2209_17041)"/>
<path d="M142.281 27.5541C142.281 18.6199 149.176 11.4087 159.229 11.4087C168.379 11.4087 175.403 17.9179 175.403 28.7666V31.1277H154.267C154.911 33.1059 157.167 35.0205 160.969 35.0205C162.709 35.0205 166.575 34.1908 168.122 32.8507L172.89 39.9343C169.797 42.5508 164.255 43.7633 159.615 43.7633C149.885 43.7633 142.281 37.7008 142.281 27.5541ZM159.229 20.1514C155.685 20.1514 154.525 22.4487 154.138 23.8527H164.384C164.062 22.5126 162.966 20.1514 159.229 20.1514Z" fill="url(#paint4_linear_2209_17041)"/>
<defs>
<linearGradient id="paint0_linear_2209_17041" x1="88.7792" y1="40.812" x2="117.843" y2="11.4646" gradientUnits="userSpaceOnUse">
<stop stop-color="#3E64FF"/>
<stop offset="1" stop-color="#10DDC2"/>
</linearGradient>
<linearGradient id="paint1_linear_2209_17041" x1="7.82936" y1="41.8168" x2="45.2237" y2="4.05708" gradientUnits="userSpaceOnUse">
<stop stop-color="#3E64FF"/>
<stop offset="1" stop-color="#10DDC2"/>
</linearGradient>
<linearGradient id="paint2_linear_2209_17041" x1="53.3561" y1="40.4447" x2="82.7106" y2="10.8034" gradientUnits="userSpaceOnUse">
<stop stop-color="#3E64FF"/>
<stop offset="1" stop-color="#10DDC2"/>
</linearGradient>
<linearGradient id="paint3_linear_2209_17041" x1="118.803" y1="35.2666" x2="141.974" y2="11.8691" gradientUnits="userSpaceOnUse">
<stop stop-color="#3E64FF"/>
<stop offset="1" stop-color="#10DDC2"/>
</linearGradient>
<linearGradient id="paint4_linear_2209_17041" x1="147.833" y1="40.0199" x2="171.18" y2="16.4444" gradientUnits="userSpaceOnUse">
<stop stop-color="#3E64FF"/>
<stop offset="1" stop-color="#10DDC2"/>
</linearGradient>
</defs>
</svg>
